# File created by Blade
# Date/Time:  Tue Jan 27 18:09:10 2015
# Frame Rate: 120.000 fps
#------------------------------------------------------
:FULLY-SPECIFIED
:DEGREES
2695
root -1.527638 31.886960 -6.457135 7.377961 8.189030 2.981884
Spine -6.395584 -12.738049 -3.706840
Head 0.554509 -10.402728 7.783267
LeftShoulder -12.838350 16.799867 4.777357
LeftArm 27.569930 42.171924 -66.705548
LeftForeArm -0.852232 -0.000000 16.116089
LeftHand -11.216193 -0.000000 -4.559686
LeftHandThumb1 -26.253704 0.000000 33.147579
RightShoulder -9.398697 8.886317 -32.896648
RightArm -0.085196 60.454219 35.811116
RightForeArm 16.086930 -0.000000 98.700828
RightHand -9.317770 -0.000000 1.838868
RightHandThumb1 -24.326973 -0.000000 -32.862282
LeftUpLeg -3.186431 -0.454225 -0.500219
LeftLeg 1.260484 -0.000000 -0.000000
LeftFoot -17.490263 15.550207 -24.759802
LeftToeBase 8.618293 -0.000000 -0.000000
RightUpLeg -0.178249 -4.114580 -3.098064
RightLeg -2.877332 -0.000000 0.000000
RightFoot -15.398272 -14.422362 10.379843
RightToeBase 5.000964 -0.000000 -0.000000
2696
root -1.529519 31.888117 -6.460287 7.444437 8.307398 2.986507
Spine -6.379549 -12.914855 -3.700186
Head 0.460787 -10.204746 7.831180
LeftShoulder -12.875504 16.849159 4.800484
LeftArm 27.455469 42.067127 -66.850935
LeftForeArm -0.813199 -0.000000 16.198509
LeftHand -11.151677 0.000000 -4.536258
LeftHandThumb1 -26.253704 0.000000 33.147579
RightShoulder -9.672050 8.512875 -33.034260
RightArm -0.811385 60.016500 34.937153
RightForeArm 15.802521 -0.000000 98.894230
RightHand -9.457800 -0.000000 1.330974
RightHandThumb1 -24.326973 -0.000000 -32.862282
LeftUpLeg -3.258436 -0.479914 -0.488960
LeftLeg 1.231800 -0.000000 -0.000000
LeftFoot -17.419389 15.470292 -24.755305
LeftToeBase 8.632157 -0.000000 -0.000000
RightUpLeg -0.231091 -4.161772 -3.079807
RightLeg -2.877265 -0.000000 0.000000
RightFoot -15.404057 -14.509250 10.377248
RightToeBase 5.003103 -0.000000 -0.000000
2697
root -1.531489 31.888881 -6.461550 7.500461 8.422492 2.997447
Spine -6.353741 -13.122454 -3.705075
Head 0.390917 -9.961125 7.875849
LeftShoulder -12.894542 16.889899 4.824219
LeftArm 27.263420 41.929668 -67.049033
LeftForeArm -0.757336 -0.000000 16.292189
LeftHand -11.223423 0.000000 -4.470776
LeftHandThumb1 -26.253704 0.000000 33.147579
RightShoulder -9.960188 8.072934 -33.172467
RightArm -1.405728 59.631162 34.227081
RightForeArm 15.808967 -0.000000 99.107484
RightHand -9.447385 -0.000000 1.422755
RightHandThumb1 -24.326973 -0.000000 -32.862282
LeftUpLeg -3.305381 -0.489441 -0.485314
LeftLeg 1.182502 -0.000000 -0.000000
LeftFoot -17.353383 15.395463 -24.743789
LeftToeBase 8.710090 -0.000000 -0.000000
RightUpLeg -0.264213 -4.209587 -3.067740
RightLeg -2.887786 -0.000000 0.000000
RightFoot -15.422586 -14.585957 10.411852
RightToeBase 5.005724 -0.000000 -0.000000
2698
root -1.532306 31.889629 -6.460510 7.552743 8.534154 3.016551
Spine -6.329700 -13.353231 -3.714215
Head 0.341261 -9.736745 7.912904
LeftShoulder -12.945026 16.940163 4.832698
LeftArm 27.133076 41.848378 -67.177399
LeftForeArm -0.736723 0.000000 16.347778
LeftHand -11.204523 -0.000000 -4.502314
LeftHandThumb1 -26.253704 0.000000 33.147579
RightShoulder -10.280023 7.620206 -33.294232
RightArm -1.819116 59.254744 33.685062
RightForeArm 15.602656 -0.000000 99.325737
RightHand -9.579354 -0.000000 1.382560
RightHandThumb1 -24.326973 -0.000000 -32.862282
LeftUpLeg -3.331908 -0.513274 -0.490432
LeftLeg 1.109818 -0.000000 -0.000000
LeftFoot -17.246231 15.343835 -24.695766
LeftToeBase 8.601309 -0.000000 -0.000000
RightUpLeg -0.279938 -4.273744 -3.067075
RightLeg -2.916857 -0.000000 0.000000
RightFoot -15.429713 -14.657009 10.402985
RightToeBase 5.044533 -0.000000 -0.000000
2699
root -1.535302 31.890051 -6.462440 7.608329 8.625423 3.019944
Spine -6.307059 -13.619562 -3.714750
Head 0.306085 -9.506459 7.969317
LeftShoulder -13.019715 16.940028 4.841301
LeftArm 26.921001 41.781904 -67.355815
LeftForeArm -0.769437 -0.000000 16.429654
LeftHand -11.226964 -0.000000 -4.453329
LeftHandThumb1 -26.253704 0.000000 33.147579
RightShoulder -10.516654 7.187290 -33.359065
RightArm -2.314044 58.950950 33.023720
RightForeArm 15.469887 -0.000000 99.519694
RightHand -9.457257 -0.000000 1.465949
RightHandThumb1 -24.326973 -0.000000 -32.862282
LeftUpLeg -3.374376 -0.523316 -0.477566
LeftLeg 1.052743 -0.000000 -0.000000
LeftFoot -17.165430 15.253071 -24.659180
LeftToeBase 8.625999 -0.000000 -0.000000
RightUpLeg -0.314152 -4.303042 -3.048740
RightLeg -2.937946 -0.000000 0.000000
RightFoot -15.433062 -14.736357 10.418465
RightToeBase 5.034449 -0.000000 -0.000000
2700
root -1.538886 31.889866 -6.462810 7.670032 8.712425 3.027205
Spine -6.296172 -13.861567 -3.725078
Head 0.283425 -9.331033 8.036526
LeftShoulder -13.029943 16.989496 4.861315
LeftArm 26.755037 41.697058 -67.499205
LeftForeArm -0.775853 -0.000000 16.484196
LeftHand -11.189506 -0.000000 -4.459424
LeftHandThumb1 -26.253704 0.000000 33.147579
RightShoulder -10.713140 6.754400 -33.390924
RightArm -2.896838 58.765625 32.286818
RightForeArm 15.076654 -0.000000 99.783198
RightHand -9.603478 -0.000000 1.451235
RightHandThumb1 -24.326973 -0.000000 -32.862282
LeftUpLeg -3.410681 -0.534124 -0.468065
LeftLeg 0.976703 -0.000000 -0.000000
LeftFoot -17.077053 15.209558 -24.622389
LeftToeBase 8.608814 -0.000000 -0.000000
RightUpLeg -0.341596 -4.326759 -3.033400
RightLeg -2.980896 -0.000000 0.000000
RightFoot -15.430185 -14.817562 10.416746
RightToeBase 5.041863 -0.000000 -0.000000
2701
root -1.542764 31.889708 -6.463823 7.726149 8.784435 3.034864
Spine -6.290155 -14.113214 -3.745509
Head 0.305880 -9.142332 8.121613
LeftShoulder -13.027985 17.055317 4.886644
LeftArm 26.591276 41.615929 -67.640284
LeftForeArm -0.747306 -0.000000 16.539578
LeftHand -11.190608 -0.000000 -4.375193
LeftHandThumb1 -26.253704 0.000000 33.147579
RightShoulder -10.848692 6.360730 -33.409141
RightArm -3.477835 58.734906 31.604264
RightForeArm 14.749092 -0.000000 100.020389
RightHand -9.489844 -0.000000 1.746074
RightHandThumb1 -24.326973 -0.000000 -32.862282
LeftUpLeg -3.439270 -0.543742 -0.457727
LeftLeg 0.900430 -0.000000 -0.000000
LeftFoot -17.008934 15.145619 -24.627159
LeftToeBase 8.558360 -0.000000 -0.000000
RightUpLeg -0.371275 -4.347832 -3.020073
RightLeg -3.015947 -0.000000 0.000000
RightFoot -15.430071 -14.887255 10.426785
RightToeBase 5.022078 -0.000000 -0.000000
2702
root -1.539672 31.889808 -6.460362 7.752175 8.824753 3.062698
Spine -6.261237 -14.396232 -3.769445
Head 0.340765 -8.934571 8.180961
LeftShoulder -13.087128 17.124881 4.862152
LeftArm 26.455361 41.558235 -67.753515
LeftForeArm -0.700403 0.000000 16.553460
LeftHand -11.175288 -0.000000 -4.360667
LeftHandThumb1 -26.253704 0.000000 33.147579
RightShoulder -11.015649 6.087748 -33.448654
RightArm -4.023788 58.543902 30.927532
RightForeArm 14.444992 -0.000000 100.244529
RightHand -9.399628 -0.000000 1.985630
RightHandThumb1 -24.326973 -0.000000 -32.862282
LeftUpLeg -3.408195 -0.551663 -0.487496
LeftLeg 0.789962 -0.000000 -0.000000
LeftFoot -16.956450 15.165413 -24.639929
LeftToeBase 8.637115 -0.000000 -0.000000
RightUpLeg -0.395559 -4.516731 -3.036312
RightLeg -2.984173 -0.000000 0.000000
RightFoot -15.447398 -14.794400 10.381856
RightToeBase 5.034588 -0.000000 -0.000000
2703
root -1.544334 31.889282 -6.463590 7.816386 8.848455 3.064401
Spine -6.254418 -14.677681 -3.786687
Head 0.355216 -8.814226 8.290034
LeftShoulder -13.145966 17.166811 4.869185
LeftArm 26.344383 41.562609 -67.831674
LeftForeArm -0.713623 0.000000 16.548453
LeftHand -11.211156 -0.000000 -4.326076
LeftHandThumb1 -26.253704 0.000000 33.147579
RightShoulder -11.172850 5.874722 -33.496175
RightArm -4.577058 58.401375 30.322258
RightForeArm 14.118818 0.000000 100.475358
RightHand -9.439507 -0.000000 2.165214
RightHandThumb1 -24.326973 -0.000000 -32.862282
LeftUpLeg -3.454736 -0.540132 -0.478034
LeftLeg 0.731538 -0.000000 -0.000000
LeftFoot -16.901128 15.140661 -24.633840
LeftToeBase 8.646379 -0.000000 -0.000000
RightUpLeg -0.522679 -4.741294 -3.004615
RightLeg -2.862973 -0.000000 0.000000
RightFoot -15.471218 -14.662331 10.261222
RightToeBase 4.997678 -0.000000 -0.000000
2704
root -1.544464 31.888507 -6.460897 7.834324 8.831993 3.070116
Spine -6.215673 -14.917215 -3.808003
Head 0.403604 -8.673219 8.397312
LeftShoulder -13.182551 17.205786 4.855236
LeftArm 26.251404 41.595202 -67.881044
LeftForeArm -0.776888 -0.000000 16.502345
LeftHand -11.232391 0.000000 -4.395883
LeftHandThumb1 -26.253704 0.000000 33.147579
RightShoulder -11.400943 5.532732 -33.532251
RightArm -4.821330 58.344867 30.003781
RightForeArm 13.802727 -0.000000 100.679540
RightHand -9.268331 -0.000000 2.429319
RightHandThumb1 -24.326973 -0.000000 -32.862282
LeftUpLeg -3.417958 -0.550666 -0.483219
LeftLeg 0.632409 -0.000000 -0.000000
LeftFoot -16.883894 15.168829 -24.644693
LeftToeBase 8.698591 -0.000000 -0.000000
RightUpLeg -0.540307 -4.767352 -3.008758
RightLeg -2.859383 -0.000000 0.000000
RightFoot -15.474948 -14.620297 10.244806
RightToeBase 4.996132 -0.000000 -0.000000
2705
root -1.548089 31.888131 -6.461171 7.865022 8.780398 3.063560
Spine -6.197284 -15.158353 -3.828482
Head 0.432455 -8.692437 8.499895
LeftShoulder -13.188361 17.274228 4.849089
LeftArm 26.114720 41.550985 -67.962067
LeftForeArm -0.743829 -0.000000 16.491073
LeftHand -11.187820 0.000000 -4.529665
LeftHandThumb1 -26.253704 0.000000 33.147579
RightShoulder -11.531425 5.427370 -33.574735
RightArm -5.410696 58.169742 29.388619
RightForeArm 13.564883 0.000000 100.908899
RightHand -9.244703 -0.000000 2.604448
RightHandThumb1 -24.326973 -0.000000 -32.862282
LeftUpLeg -3.416193 -0.519848 -0.475363
LeftLeg 0.569452 -0.000000 -0.000000
LeftFoot -16.856563 15.205963 -24.639535
LeftToeBase 8.646941 -0.000000 -0.000000
RightUpLeg -0.572606 -4.704528 -3.004798
RightLeg -2.874420 -0.000000 0.000000
RightFoot -15.474644 -14.604579 10.276808
RightToeBase 5.024527 -0.000000 -0.000000
2706
root -1.551546 31.887973 -6.461334 7.883945 8.701849 3.052704
Spine -6.173622 -15.383110 -3.860838
Head 0.449423 -8.785357 8.632826
LeftShoulder -13.189735 17.363669 4.841026
LeftArm 26.080323 41.579377 -67.964529
LeftForeArm -0.727141 -0.000000 16.407650
LeftHand -11.171086 -0.000000 -4.530014
LeftHandThumb1 -26.253704 0.000000 33.147579
RightShoulder -11.634446 5.234042 -33.584876
RightArm -5.903691 58.172778 28.898439
RightForeArm 13.228814 -0.000000 101.117368
RightHand -9.089316 -0.000000 3.150769
RightHandThumb1 -24.326973 -0.000000 -32.862282
LeftUpLeg -3.405437 -0.478932 -0.466257
LeftLeg 0.520119 -0.000000 -0.000000
LeftFoot -16.875051 15.232017 -24.680314
LeftToeBase 8.702256 -0.000000 -0.000000
RightUpLeg -0.599508 -4.608910 -3.000839
RightLeg -2.889463 -0.000000 0.000000
RightFoot -15.452096 -14.606015 10.281945
RightToeBase 4.961271 -0.000000 -0.000000
